<?xml version="1.0" standalone="no"?>
<!DOCTYPE svg PUBLIC "-//W3C//DTD SVG 20010904//EN"
 "http://www.w3.org/TR/2001/REC-SVG-20010904/DTD/svg10.dtd">
<svg version="1.0" xmlns="http://www.w3.org/2000/svg"
 width="610.000000pt" height="610.000000pt" viewBox="0 0 610.000000 610.000000"
 preserveAspectRatio="xMidYMid meet">

<g transform="translate(0.000000,610.000000) scale(0.100000,-0.100000)"
fill="#000000" stroke="none">
<path d="M2785 6089 c-874 -82 -1655 -518 -2175 -1214 -320 -427 -511 -897
-587 -1445 -24 -174 -24 -585 0 -760 77 -551 269 -1022 593 -1453 736 -979
1984 -1421 3174 -1125 999 248 1823 1009 2151 1988 440 1313 -57 2749 -1215
3515 -389 257 -813 415 -1286 480 -140 19 -518 27 -655 14z m440 -140 c612
-41 1132 -239 1625 -620 114 -88 370 -341 464 -459 452 -569 678 -1274 635
-1986 -36 -607 -255 -1177 -635 -1654 -88 -110 -335 -357 -444 -444 -483 -383
-1050 -601 -1655 -635 -1025 -58 -2002 427 -2574 1279 -448 668 -600 1472
-425 2260 91 408 281 806 554 1160 89 115 343 371 460 464 476 377 1033 595
1627 635 172 12 202 12 368 0z"/>
<path d="M1730 4063 c-250 -252 -579 -583 -730 -736 l-275 -277 735 -735 735
-735 52 52 c29 29 53 57 53 63 0 5 -285 295 -632 642 l-633 633 2093 0 2092 0
0 80 0 80 -2092 0 -2093 0 633 633 c347 347 632 637 632 642 0 10 -101 115
-110 115 -3 0 -210 -206 -460 -457z"/>
</g>
</svg>
