<?xml version="1.0" standalone="no"?>
<!DOCTYPE svg PUBLIC "-//W3C//DTD SVG 20010904//EN"
 "http://www.w3.org/TR/2001/REC-SVG-20010904/DTD/svg10.dtd">
<svg version="1.0" xmlns="http://www.w3.org/2000/svg"
 width="610.000000pt" height="610.000000pt" viewBox="0 0 610.000000 610.000000"
 preserveAspectRatio="xMidYMid meet">

<g transform="translate(0.000000,610.000000) scale(0.100000,-0.100000)"
fill="#000000" stroke="none">
<path d="M2790 6089 c-1296 -112 -2383 -1041 -2699 -2304 -313 -1251 201
-2564 1283 -3280 392 -259 809 -414 1296 -482 175 -24 585 -24 760 0 548 76
1017 267 1445 587 593 444 1013 1101 1160 1815 48 234 59 353 59 625 0 272
-11 392 -59 622 -216 1049 -996 1927 -2015 2269 -390 130 -827 183 -1230 148z
m418 -139 c417 -24 806 -130 1169 -317 589 -303 1069 -813 1333 -1417 183
-418 265 -873 239 -1324 -34 -606 -239 -1150 -619 -1642 -89 -115 -343 -371
-460 -464 -812 -644 -1855 -814 -2830 -461 -261 95 -536 250 -790 446 -114 88
-370 341 -464 459 -452 569 -678 1274 -635 1986 36 607 255 1177 635 1654 88
110 335 357 444 444 476 378 1054 602 1640 635 74 5 142 9 150 9 8 1 93 -3
188 -8z"/>
<path d="M3852 4467 c-28 -29 -52 -57 -52 -62 0 -6 285 -295 632 -642 l633
-633 -2093 0 -2092 0 0 -80 0 -80 2092 0 2093 0 -633 -633 c-347 -347 -632
-637 -632 -642 0 -6 25 -35 56 -65 l56 -55 729 735 c401 404 729 737 729 740
0 3 -330 335 -733 738 l-732 732 -53 -53z"/>
</g>
</svg>
